<svg xmlns="http://www.w3.org/2000/svg" viewBox="0 0 512 512">
  <defs>
    <linearGradient id="bg" x1="0" x2="1" y1="0" y2="1">
      <stop offset="0%" stop-color="#133127"/>
      <stop offset="100%" stop-color="#265744"/>
    </linearGradient>
    <linearGradient id="accent" x1="0" x2="1" y1="0" y2="1">
      <stop offset="0%" stop-color="#f0ad7d"/>
      <stop offset="100%" stop-color="#c46d3a"/>
    </linearGradient>
  </defs>
  <rect width="512" height="512" rx="136" fill="url(#bg)"/>
  <circle cx="384" cy="126" r="72" fill="#f5efe4" opacity="0.1"/>
  <path d="M132 332c0-54 44-98 98-98h112c20 0 36 16 36 36v96c0 20-16 36-36 36H204c-40 0-72-32-72-72Z" fill="#f5efe4" opacity="0.92"/>
  <path d="M166 192c0-54 44-98 98-98h40c30 0 54 24 54 54v148c0 30-24 54-54 54h-28c-61 0-110-49-110-110V192Z" fill="url(#accent)"/>
  <path d="M262 136c31 0 56 25 56 56v24h-72c-17 0-30 13-30 30v58c-26-16-44-45-44-78v-34c0-31 25-56 56-56h34Z" fill="#fff4ea" opacity="0.74"/>
  <path d="M258 274h142" stroke="#133127" stroke-width="24" stroke-linecap="round"/>
  <path d="M258 336h96" stroke="#133127" stroke-width="24" stroke-linecap="round"/>
</svg>
