<svg xmlns="http://www.w3.org/2000/svg" viewBox="0 0 180 180">
  <defs>
    <linearGradient id="bg" x1="0" x2="1" y1="0" y2="1">
      <stop offset="0%" stop-color="#133127"/>
      <stop offset="100%" stop-color="#265744"/>
    </linearGradient>
    <linearGradient id="accent" x1="0" x2="1" y1="0" y2="1">
      <stop offset="0%" stop-color="#f0ad7d"/>
      <stop offset="100%" stop-color="#c46d3a"/>
    </linearGradient>
  </defs>
  <rect width="180" height="180" rx="42" fill="url(#bg)"/>
  <path d="M47 117c0-19 15-34 34-34h38c8 0 13 5 13 13v33c0 8-5 13-13 13H72c-14 0-25-11-25-25Z" fill="#f5efe4" opacity="0.92"/>
  <path d="M58 69c0-19 15-34 34-34h14c10 0 18 8 18 18v52c0 10-8 18-18 18h-10c-21 0-38-17-38-38V69Z" fill="url(#accent)"/>
  <path d="M90 96h48" stroke="#133127" stroke-width="8" stroke-linecap="round"/>
  <path d="M90 118h32" stroke="#133127" stroke-width="8" stroke-linecap="round"/>
</svg>
